<svg xmlns="http://www.w3.org/2000/svg" viewBox="0 0 2480 1200">
	<defs>
		<linearGradient id="grd1" gradientUnits="userSpaceOnUse" x1="1240.617" y1="280.287" x2="1240.617" y2="920.951">
			<stop offset="0" stop-color="#00b2ff" />
			<stop offset="1" stop-color="#006aff" />
		</linearGradient>
	</defs>
	<style>.shp0 { fill: url(#grd1) } .shp1 { fill: #ffffff }</style>
	<g>
		<path fill-rule="evenodd" class="shp0" d="M1240.62 280.29C1060.15 280.29 920.29 412.48 920.29 591.01C920.29 684.41 958.57 765.1 1020.9 820.85C1026.12 825.56 1029.28 832.07 1029.53 839.09L1031.27 896.07C1031.85 914.25 1050.61 926.04 1067.24 918.76L1130.79 890.72C1136.2 888.34 1142.2 887.89 1147.87 889.43C1177.07 897.49 1208.2 901.74 1240.62 901.74C1421.08 901.74 1560.95 769.55 1560.95 591.01C1560.95 412.48 1421.08 280.29 1240.62 280.29Z" />
		<path fill-rule="evenodd" class="shp1" d="M1048.29 681.9L1142.39 532.62C1157.34 508.9 1189.44 502.97 1211.87 519.8L1286.7 575.93C1293.6 581.09 1303.01 581.02 1309.84 575.87L1410.9 499.17C1424.37 488.92 1442.03 505.1 1432.95 519.41L1338.91 668.62C1323.96 692.34 1291.86 698.26 1269.43 681.44L1194.6 625.31C1187.7 620.15 1178.29 620.21 1171.46 625.37L1070.33 702.13C1056.86 712.38 1039.2 696.2 1048.29 681.9Z" />
	</g>
</svg>