<svg xmlns="http://www.w3.org/2000/svg" viewBox="0 0 1400 1400">
	<defs>
		<linearGradient id="grd1" gradientUnits="userSpaceOnUse" x1="700.772" y1="130.003" x2="700.772" y2="1271.549">
			<stop offset="0" stop-color="#00b2ff" />
			<stop offset="1" stop-color="#006aff" />
		</linearGradient>
	</defs>
	<style>.shp0 { fill: url(#grd1) } .shp1 { fill: #ffffff }</style>
	<g>
		<path fill-rule="evenodd" class="shp0" d="M700.77 130C379.21 130 130 365.54 130 683.66C130 850.07 198.22 993.86 309.27 1093.19C318.57 1101.58 324.2 1113.18 324.66 1125.69L327.76 1227.22C328.79 1259.61 362.21 1280.62 391.84 1267.65L505.08 1217.69C514.73 1213.44 525.4 1212.63 535.51 1215.39C587.54 1229.74 643 1237.32 700.77 1237.32C1022.33 1237.32 1271.54 1001.78 1271.54 683.66C1271.54 365.54 1022.33 130 700.77 130Z" />
		<path fill-rule="evenodd" class="shp1" d="M358.08 845.6L525.75 579.62C552.39 537.35 609.59 526.79 649.55 556.76L782.88 656.79C795.17 665.98 811.94 665.86 824.12 656.67L1004.19 520.01C1028.2 501.75 1059.66 530.58 1043.47 556.07L875.91 821.93C849.27 864.2 792.07 874.76 752.1 844.79L618.77 744.76C606.48 735.57 589.72 735.69 577.54 744.87L397.36 881.66C373.35 899.92 341.88 871.09 358.08 845.6Z" />
	</g>
</svg>