<svg xmlns="http://www.w3.org/2000/svg" viewBox="0 0 1400 1400">
	<style>.shp0 { fill: #ffffff }</style>
	<g>
		<path fill-rule="evenodd" class="shp0" d="M1142.34 687.43C1142.34 933.59 949.5 1115.86 700.67 1115.86C655.97 1115.86 613.05 1109.99 572.79 1098.88C564.97 1096.75 556.71 1097.38 549.24 1100.67L461.62 1139.32C438.69 1149.36 412.83 1133.1 412.03 1108.04L409.63 1029.48C409.27 1019.79 404.92 1010.82 397.72 1004.33C311.79 927.46 259 816.2 259 687.43C259 441.27 451.84 259 700.67 259C949.5 259 1142.34 441.27 1142.34 687.43ZM465.88 840.64L605.31 734.79C614.73 727.69 627.71 727.6 637.22 734.71L740.39 812.11C771.32 835.3 815.58 827.13 836.19 794.42L965.85 588.7C978.38 568.97 954.03 546.66 935.46 560.79L796.11 666.54C786.69 673.65 773.72 673.75 764.21 666.63L661.03 589.23C630.11 566.04 585.85 574.21 565.23 606.92L435.49 812.74C422.96 832.46 447.31 854.77 465.88 840.64Z" />
	</g>
</svg>