<svg xmlns="http://www.w3.org/2000/svg" viewBox="0 0 1400 1400">
	<style>.shp0 { fill: #ffffff }</style>
	<g>
		<path fill-rule="evenodd" class="shp0" d="M1271.54 683.66C1271.54 1001.78 1022.33 1237.32 700.77 1237.32C643 1237.32 587.54 1229.74 535.51 1215.39C525.4 1212.63 514.73 1213.44 505.08 1217.69L391.84 1267.65C362.21 1280.62 328.79 1259.61 327.76 1227.22L324.66 1125.69C324.2 1113.18 318.57 1101.58 309.27 1093.19C198.22 993.86 130 850.07 130 683.66C130 365.54 379.21 130 700.77 130C1022.33 130 1271.54 365.54 1271.54 683.66ZM397.36 881.66L577.54 744.87C589.72 735.69 606.48 735.57 618.77 744.76L752.1 844.79C792.07 874.76 849.27 864.2 875.91 821.93L1043.47 556.07C1059.66 530.58 1028.2 501.75 1004.19 520.01L824.12 656.67C811.94 665.86 795.17 665.98 782.88 656.79L649.55 556.76C609.59 526.79 552.39 537.35 525.75 579.62L358.08 845.6C341.88 871.09 373.35 899.92 397.36 881.66Z" />
	</g>
</svg>