<svg xmlns="http://www.w3.org/2000/svg" viewBox="0 0 1400 1400">
	<defs>
		<linearGradient id="grd1" gradientUnits="userSpaceOnUse" x1="700.745" y1="361.002" x2="700.745" y2="1040.494">
			<stop offset="0" stop-color="#00b2ff" />
			<stop offset="1" stop-color="#006aff" />
		</linearGradient>
	</defs>
	<style>.shp0 { fill: url(#grd1) } .shp1 { fill: #ffffff }</style>
	<g>
		<path fill-rule="evenodd" class="shp0" d="M700.75 361C509.34 361 361 501.21 361 690.56C361 789.62 401.61 875.2 467.71 934.33C473.25 939.32 476.6 946.23 476.87 953.68L478.72 1014.11C479.33 1033.39 499.22 1045.89 516.86 1038.17L584.26 1008.44C590 1005.91 596.36 1005.43 602.38 1007.07C633.35 1015.61 666.36 1020.12 700.75 1020.12C892.15 1020.12 1040.49 879.91 1040.49 690.56C1040.49 501.2 892.15 361 700.75 361Z" />
		<path fill-rule="evenodd" class="shp1" d="M496.76 786.95L596.57 628.63C612.42 603.47 646.47 597.19 670.25 615.03L749.62 674.57C756.93 680.04 766.91 679.97 774.16 674.5L881.35 593.15C895.64 582.28 914.37 599.44 904.73 614.62L805 772.87C789.13 798.03 755.09 804.31 731.3 786.47L651.93 726.93C644.62 721.46 634.64 721.53 627.39 727L520.14 808.42C505.85 819.29 487.12 802.13 496.76 786.95Z" />
	</g>
</svg>