<svg xmlns="http://www.w3.org/2000/svg" viewBox="0 0 1400 1400">
	<style>.shp0 { fill: #ffffff }</style>
	<g>
		<path fill-rule="evenodd" class="shp0" d="M1040.49 690.56C1040.49 879.91 892.15 1020.12 700.75 1020.12C666.36 1020.12 633.35 1015.61 602.38 1007.07C596.36 1005.43 590 1005.91 584.26 1008.44L516.86 1038.17C499.22 1045.89 479.33 1033.39 478.72 1014.11L476.87 953.68C476.6 946.23 473.25 939.32 467.71 934.33C401.61 875.2 361 789.62 361 690.56C361 501.21 509.34 361 700.75 361C892.15 361 1040.49 501.2 1040.49 690.56ZM520.14 808.42L627.39 727C634.64 721.53 644.62 721.46 651.93 726.93L731.3 786.47C755.09 804.31 789.13 798.03 805 772.87L904.73 614.62C914.37 599.44 895.64 582.28 881.35 593.15L774.16 674.5C766.91 679.97 756.93 680.04 749.62 674.57L670.25 615.03C646.47 597.19 612.42 603.47 596.57 628.63L496.76 786.95C487.12 802.13 505.85 819.29 520.14 808.42Z" />
	</g>
</svg>