<svg xmlns="http://www.w3.org/2000/svg" viewBox="0 0 1400 1400">
	<defs>
		<linearGradient id="grd1" gradientUnits="userSpaceOnUse" x1="700.669" y1="259.002" x2="700.669" y2="1142.342">
			<stop offset="0" stop-color="#00b2ff" />
			<stop offset="1" stop-color="#006aff" />
		</linearGradient>
	</defs>
	<style>.shp0 { fill: url(#grd1) } .shp1 { fill: #ffffff }</style>
	<g>
		<path fill-rule="evenodd" class="shp0" d="M700.67 259C451.84 259 259 441.27 259 687.43C259 816.2 311.79 927.46 397.72 1004.33C404.92 1010.82 409.27 1019.79 409.63 1029.48L412.03 1108.04C412.83 1133.1 438.69 1149.36 461.62 1139.32L549.24 1100.67C556.71 1097.38 564.97 1096.75 572.79 1098.88C613.05 1109.99 655.97 1115.86 700.67 1115.86C949.5 1115.86 1142.34 933.59 1142.34 687.43C1142.34 441.27 949.5 259 700.67 259Z" />
		<path fill-rule="evenodd" class="shp1" d="M435.49 812.74L565.23 606.92C585.85 574.21 630.11 566.04 661.03 589.23L764.21 666.63C773.72 673.75 786.69 673.65 796.11 666.54L935.46 560.79C954.03 546.66 978.38 568.97 965.85 588.7L836.19 794.42C815.58 827.13 771.32 835.3 740.39 812.11L637.22 734.71C627.71 727.6 614.73 727.69 605.31 734.79L465.88 840.64C447.31 854.77 422.96 832.46 435.49 812.74Z" />
	</g>
</svg>