<svg xmlns="http://www.w3.org/2000/svg" viewBox="0 0 1400 1400">
	<style>.shp0 { fill: #ffffff }</style>
	<g>
		<path fill-rule="evenodd" class="shp0" d="M1067.85 689.92C1067.85 894.43 907.64 1045.85 700.92 1045.85C663.79 1045.85 628.13 1040.98 594.69 1031.75C588.19 1029.98 581.33 1030.5 575.12 1033.23L502.33 1065.34C483.28 1073.69 461.8 1060.18 461.13 1039.35L459.14 974.09C458.84 966.04 455.22 958.59 449.25 953.2C377.85 889.34 334 796.9 334 689.92C334 485.42 494.21 334 700.92 334C907.64 334 1067.85 485.42 1067.85 689.92ZM505.87 817.21L621.71 729.27C629.53 723.37 640.31 723.3 648.21 729.2L733.92 793.51C759.62 812.77 796.39 805.99 813.51 778.81L921.23 607.9C931.64 591.52 911.41 572.98 895.98 584.72L780.22 672.57C772.39 678.48 761.61 678.56 753.71 672.65L668 608.35C642.31 589.08 605.54 595.87 588.41 623.04L480.62 794.03C470.21 810.41 490.44 828.95 505.87 817.21Z" />
	</g>
</svg>