<svg xmlns="http://www.w3.org/2000/svg" viewBox="0 0 1400 1400">
	<defs>
		<linearGradient id="grd1" gradientUnits="userSpaceOnUse" x1="700" y1="15.723" x2="700" y2="1374.707">
			<stop offset="0" stop-color="#00b2ff" />
			<stop offset="1" stop-color="#006aff" />
		</linearGradient>
	</defs>
	<style>.shp0 { fill: url(#grd1) } .shp1 { fill: #ffffff }</style>
	<g>
		<path fill-rule="evenodd" class="shp0" d="M700 15.72C317.19 15.72 20.51 296.13 20.51 674.84C20.51 872.95 101.72 1044.12 233.93 1162.38C245 1172.36 251.7 1186.17 252.25 1201.07L255.94 1321.93C257.17 1360.49 296.95 1385.51 332.23 1370.06L467.03 1310.59C478.52 1305.53 491.23 1304.57 503.26 1307.85C565.2 1324.94 631.23 1333.96 700 1333.96C1082.81 1333.96 1379.49 1053.55 1379.49 674.84C1379.49 296.13 1082.81 15.72 700 15.72Z" />
		<path fill-rule="evenodd" class="shp1" d="M292.03 867.62L491.64 550.98C523.36 500.66 591.45 488.09 639.02 523.77L797.75 642.85C812.38 653.79 832.34 653.65 846.84 642.71L1061.21 480.02C1089.79 458.28 1127.25 492.6 1107.97 522.95L908.5 839.45C876.78 889.77 808.69 902.34 761.11 866.66L602.38 747.58C587.75 736.64 567.79 736.78 553.3 747.71L338.79 910.55C310.21 932.29 272.75 897.97 292.03 867.62Z" />
	</g>
</svg>