<svg xmlns="http://www.w3.org/2000/svg" viewBox="0 0 1400 1400">
	<defs>
		<linearGradient id="grd1" gradientUnits="userSpaceOnUse" x1="700.541" y1="89.003" x2="700.541" y2="1312.088">
			<stop offset="0" stop-color="#00b2ff" />
			<stop offset="1" stop-color="#006aff" />
		</linearGradient>
	</defs>
	<style>.shp0 { fill: url(#grd1) } .shp1 { fill: #ffffff }</style>
	<g>
		<path fill-rule="evenodd" class="shp0" d="M700.54 89C356.01 89 89 341.37 89 682.21C89 860.51 162.09 1014.56 281.08 1120.99C291.04 1129.98 297.07 1142.4 297.57 1155.81L300.89 1264.59C301.99 1299.29 337.8 1321.81 369.55 1307.91L490.87 1254.38C501.21 1249.83 512.65 1248.96 523.47 1251.92C579.22 1267.3 638.65 1275.42 700.54 1275.42C1045.07 1275.42 1312.08 1023.05 1312.08 682.21C1312.08 341.37 1045.07 89 700.54 89Z" />
		<path fill-rule="evenodd" class="shp1" d="M333.37 855.71L513.02 570.73C541.56 525.45 602.85 514.13 645.66 546.24L788.52 653.42C801.68 663.26 819.65 663.14 832.7 653.29L1025.63 506.87C1051.35 487.3 1085.07 518.19 1067.71 545.51L888.19 830.36C859.64 875.64 798.36 886.96 755.54 854.85L612.68 747.67C599.52 737.83 581.55 737.95 568.51 747.79L375.45 894.35C349.73 913.91 316.02 883.02 333.37 855.71Z" />
	</g>
</svg>