<svg xmlns="http://www.w3.org/2000/svg" viewBox="0 0 2480 1200">
	<style>.shp0 { fill: #ffffff }</style>
	<g>
		<path fill-rule="evenodd" class="shp0" d="M1560.95 591.01C1560.95 769.55 1421.08 901.74 1240.62 901.74C1208.2 901.74 1177.07 897.49 1147.87 889.43C1142.2 887.89 1136.2 888.34 1130.79 890.72L1067.24 918.76C1050.61 926.04 1031.85 914.25 1031.27 896.07L1029.53 839.09C1029.28 832.07 1026.12 825.56 1020.9 820.85C958.57 765.1 920.29 684.41 920.29 591.01C920.29 412.48 1060.15 280.29 1240.62 280.29C1421.08 280.29 1560.95 412.48 1560.95 591.01ZM1070.33 702.13L1171.46 625.37C1178.29 620.21 1187.7 620.15 1194.6 625.31L1269.43 681.44C1291.86 698.26 1323.96 692.34 1338.91 668.62L1432.95 519.41C1442.03 505.1 1424.37 488.92 1410.9 499.17L1309.84 575.87C1303.01 581.02 1293.6 581.09 1286.7 575.93L1211.87 519.8C1189.44 502.97 1157.34 508.9 1142.39 532.62L1048.29 681.9C1039.2 696.2 1056.86 712.38 1070.33 702.13Z" />
	</g>
</svg>