<svg xmlns="http://www.w3.org/2000/svg" viewBox="0 0 1400 1400">
	<defs>
		<linearGradient id="grd1" gradientUnits="userSpaceOnUse" x1="700.925" y1="334.002" x2="700.925" y2="1067.853">
			<stop offset="0" stop-color="#00b2ff" />
			<stop offset="1" stop-color="#006aff" />
		</linearGradient>
	</defs>
	<style>.shp0 { fill: url(#grd1) } .shp1 { fill: #ffffff }</style>
	<g>
		<path fill-rule="evenodd" class="shp0" d="M700.92 334C494.21 334 334 485.42 334 689.92C334 796.9 377.85 889.34 449.25 953.2C455.22 958.59 458.84 966.04 459.14 974.09L461.13 1039.35C461.8 1060.18 483.28 1073.69 502.33 1065.34L575.12 1033.23C581.33 1030.5 588.19 1029.98 594.69 1031.75C628.13 1040.98 663.79 1045.85 700.92 1045.85C907.64 1045.85 1067.85 894.43 1067.85 689.92C1067.85 485.42 907.64 334 700.92 334Z" />
		<path fill-rule="evenodd" class="shp1" d="M480.62 794.03L588.41 623.04C605.54 595.87 642.31 589.08 668 608.35L753.71 672.65C761.61 678.56 772.39 678.48 780.22 672.57L895.98 584.72C911.41 572.98 931.64 591.52 921.23 607.9L813.51 778.81C796.39 805.99 759.62 812.77 733.92 793.51L648.21 729.2C640.31 723.3 629.53 723.37 621.71 729.27L505.87 817.21C490.44 828.95 470.21 810.41 480.62 794.03Z" />
	</g>
</svg>