<svg xmlns="http://www.w3.org/2000/svg" viewBox="0 0 1400 1400">
	<style>.shp0 { fill: #ffffff }</style>
	<g>
		<path fill-rule="evenodd" class="shp0" d="M1312.08 682.21C1312.08 1023.05 1045.07 1275.42 700.54 1275.42C638.65 1275.42 579.22 1267.3 523.47 1251.92C512.65 1248.96 501.21 1249.83 490.87 1254.38L369.55 1307.91C337.8 1321.81 301.99 1299.29 300.89 1264.59L297.57 1155.81C297.07 1142.4 291.04 1129.98 281.08 1120.99C162.09 1014.56 89 860.51 89 682.21C89 341.37 356.01 89 700.54 89C1045.07 89 1312.08 341.37 1312.08 682.21ZM375.45 894.35L568.51 747.79C581.55 737.95 599.52 737.83 612.68 747.67L755.54 854.85C798.36 886.96 859.64 875.64 888.19 830.36L1067.71 545.51C1085.07 518.19 1051.35 487.3 1025.63 506.87L832.7 653.29C819.65 663.14 801.68 663.26 788.52 653.42L645.66 546.24C602.85 514.13 541.56 525.45 513.02 570.73L333.37 855.71C316.02 883.02 349.73 913.91 375.45 894.35Z" />
	</g>
</svg>